<mxfile host="app.diagrams.net" modified="2024-05-11T19:52:17.800Z" agent="Mozilla/5.0 (Windows NT 10.0; Win64; x64) AppleWebKit/537.36 (KHTML, like Gecko) Chrome/124.0.0.0 Safari/537.36" etag="raHuypXcmkKLdbnzRNoW" version="24.2.3" type="device">
  <diagram name="Page-1" id="p11G87P55L-2idNaU2Ae">
    <mxGraphModel dx="1050" dy="603" grid="1" gridSize="10" guides="1" tooltips="1" connect="1" arrows="1" fold="1" page="1" pageScale="1" pageWidth="850" pageHeight="1100" math="0" shadow="0">
      <root>
        <mxCell id="0" />
        <mxCell id="1" parent="0" />
        <mxCell id="SIFj7IteEsouxHPWQI7d-1" value="Validator" style="rounded=1;whiteSpace=wrap;html=1;verticalAlign=top;" vertex="1" parent="1">
          <mxGeometry x="120" y="150" width="160" height="270" as="geometry" />
        </mxCell>
        <mxCell id="SIFj7IteEsouxHPWQI7d-2" value="ChangeMultipleEntities&lt;div&gt;Viewmodel&lt;/div&gt;&lt;div&gt;&lt;br&gt;&lt;/div&gt;&lt;div&gt;Entity.PropertyChanged&lt;/div&gt;" style="rounded=1;whiteSpace=wrap;html=1;verticalAlign=top;" vertex="1" parent="1">
          <mxGeometry x="380" y="150" width="160" height="270" as="geometry" />
        </mxCell>
      </root>
    </mxGraphModel>
  </diagram>
</mxfile>
